<?xml version="1.0" encoding="UTF-8"?>
<svg xmlns="http://www.w3.org/2000/svg" xmlns:xlink="http://www.w3.org/1999/xlink" viewBox="0 0 70 70" width="70px" height="70px">
<g id="surface612645">
<path style=" stroke:none;fill-rule:nonzero;fill:rgb(30.980393%,64.705884%,92.156863%);fill-opacity:1;" d="M 35 2.800781 C 17.234375 2.800781 2.800781 17.234375 2.800781 35 C 2.800781 40.710938 4.367188 46.039062 6.976562 50.691406 L 2.851562 65.421875 C 2.71875 65.902344 2.847656 66.417969 3.195312 66.773438 C 3.542969 67.132812 4.054688 67.277344 4.535156 67.160156 L 19.894531 63.351562 C 24.410156 65.761719 29.53125 67.199219 35 67.199219 C 52.765625 67.199219 67.199219 52.765625 67.199219 35 C 67.199219 17.234375 52.765625 2.800781 35 2.800781 Z M 35 5.601562 C 51.253906 5.601562 64.398438 18.746094 64.398438 35 C 64.398438 51.253906 51.253906 64.398438 35 64.398438 C 29.789062 64.398438 24.910156 63.042969 20.667969 60.667969 C 20.355469 60.496094 19.992188 60.445312 19.644531 60.53125 L 6.195312 63.863281 L 9.800781 50.996094 C 9.90625 50.628906 9.855469 50.234375 9.664062 49.90625 C 7.085938 45.53125 5.601562 40.445312 5.601562 35 C 5.601562 18.746094 18.746094 5.601562 35 5.601562 Z M 23.300781 18.199219 C 22.402344 18.199219 21.121094 18.535156 20.066406 19.667969 C 19.433594 20.351562 16.800781 22.917969 16.800781 27.429688 C 16.800781 32.136719 20.0625 36.199219 20.457031 36.71875 L 20.460938 36.71875 L 20.460938 36.722656 C 20.425781 36.671875 20.960938 37.453125 21.679688 38.386719 C 22.398438 39.324219 23.40625 40.550781 24.667969 41.878906 C 27.191406 44.539062 30.742188 47.609375 35.148438 49.488281 C 37.175781 50.351562 38.777344 50.875 39.992188 51.257812 C 42.238281 51.960938 44.285156 51.855469 45.824219 51.628906 C 46.972656 51.457031 48.238281 50.90625 49.492188 50.113281 C 50.746094 49.320312 51.972656 48.335938 52.515625 46.835938 C 52.902344 45.761719 53.097656 44.769531 53.171875 43.957031 C 53.207031 43.546875 53.210938 43.1875 53.183594 42.851562 C 53.15625 42.519531 53.183594 42.265625 52.875 41.753906 C 52.222656 40.683594 51.484375 40.65625 50.714844 40.273438 C 50.285156 40.0625 49.066406 39.46875 47.847656 38.886719 C 46.625 38.304688 45.570312 37.789062 44.917969 37.558594 C 44.507812 37.410156 44.003906 37.195312 43.28125 37.277344 C 42.554688 37.359375 41.839844 37.882812 41.421875 38.5 C 41.027344 39.085938 39.4375 40.960938 38.953125 41.511719 C 38.949219 41.507812 38.988281 41.527344 38.796875 41.433594 C 38.199219 41.136719 37.464844 40.886719 36.382812 40.3125 C 35.296875 39.742188 33.9375 38.894531 32.453125 37.585938 L 32.453125 37.582031 C 30.246094 35.636719 28.695312 33.195312 28.207031 32.375 C 28.242188 32.335938 28.203125 32.382812 28.273438 32.316406 L 28.277344 32.3125 C 28.773438 31.820312 29.21875 31.234375 29.589844 30.800781 C 30.121094 30.191406 30.355469 29.652344 30.609375 29.152344 C 31.113281 28.148438 30.832031 27.046875 30.539062 26.464844 C 30.558594 26.503906 30.382812 26.109375 30.191406 25.65625 C 29.996094 25.203125 29.753906 24.613281 29.492188 23.984375 C 28.964844 22.726562 28.378906 21.316406 28.03125 20.488281 L 28.03125 20.484375 C 27.621094 19.511719 27.066406 18.8125 26.34375 18.472656 C 25.617188 18.136719 24.976562 18.230469 24.953125 18.230469 L 24.949219 18.230469 C 24.429688 18.207031 23.863281 18.199219 23.300781 18.199219 Z M 23.300781 21 C 23.839844 21 24.371094 21.007812 24.816406 21.027344 C 25.277344 21.050781 25.246094 21.050781 25.160156 21.011719 C 25.070312 20.96875 25.191406 20.957031 25.453125 21.574219 C 25.792969 22.382812 26.378906 23.800781 26.90625 25.0625 C 27.167969 25.691406 27.414062 26.285156 27.613281 26.746094 C 27.808594 27.210938 27.914062 27.472656 28.039062 27.71875 L 28.039062 27.722656 L 28.042969 27.722656 C 28.164062 27.960938 28.152344 27.808594 28.109375 27.894531 C 27.8125 28.480469 27.773438 28.625 27.476562 28.96875 C 27.019531 29.492188 26.554688 30.078125 26.308594 30.320312 C 26.09375 30.53125 25.707031 30.859375 25.464844 31.503906 C 25.222656 32.148438 25.335938 33.03125 25.726562 33.691406 C 26.242188 34.574219 27.949219 37.351562 30.601562 39.6875 C 32.273438 41.160156 33.832031 42.132812 35.074219 42.789062 C 36.316406 43.445312 37.328125 43.828125 37.554688 43.941406 C 38.09375 44.207031 38.683594 44.414062 39.367188 44.332031 C 40.050781 44.25 40.640625 43.835938 41.015625 43.410156 L 41.019531 43.410156 C 41.519531 42.84375 43.003906 41.148438 43.714844 40.101562 C 43.746094 40.113281 43.734375 40.105469 43.972656 40.191406 C 44.082031 40.230469 45.4375 40.835938 46.644531 41.414062 C 47.851562 41.988281 49.074219 42.585938 49.472656 42.78125 C 50.046875 43.066406 50.320312 43.25 50.390625 43.253906 C 50.394531 43.375 50.398438 43.507812 50.378906 43.710938 C 50.332031 44.273438 50.179688 45.050781 49.878906 45.886719 C 49.734375 46.292969 48.964844 47.132812 47.996094 47.746094 C 47.027344 48.359375 45.847656 48.792969 45.414062 48.859375 C 44.101562 49.050781 42.542969 49.121094 40.828125 48.585938 C 39.644531 48.210938 38.164062 47.730469 36.246094 46.914062 C 32.359375 45.257812 29.058594 42.4375 26.699219 39.953125 C 25.519531 38.710938 24.574219 37.554688 23.902344 36.679688 C 23.230469 35.804688 22.9375 35.351562 22.691406 35.03125 L 22.691406 35.027344 C 22.257812 34.453125 19.601562 30.757812 19.601562 27.429688 C 19.601562 23.910156 21.234375 22.527344 22.121094 21.574219 C 22.585938 21.074219 23.09375 21 23.300781 21 Z M 23.300781 21 "/>
</g>
</svg>
