<?xml version="1.0" encoding="UTF-8"?>
<svg xmlns="http://www.w3.org/2000/svg" xmlns:xlink="http://www.w3.org/1999/xlink" viewBox="0 0 70 70" width="70px" height="70px">
<g id="surface611310">
<path style=" stroke:none;fill-rule:nonzero;fill:rgb(30.980393%,64.705884%,92.156863%);fill-opacity:1;" d="M 22.398438 4.199219 C 12.367188 4.199219 4.199219 12.367188 4.199219 22.398438 L 4.199219 47.601562 C 4.199219 57.632812 12.367188 65.800781 22.398438 65.800781 L 47.601562 65.800781 C 57.632812 65.800781 65.800781 57.632812 65.800781 47.601562 L 65.800781 22.398438 C 65.800781 12.367188 57.632812 4.199219 47.601562 4.199219 Z M 22.398438 7 L 47.601562 7 C 56.121094 7 63 13.878906 63 22.398438 L 63 47.601562 C 63 56.121094 56.121094 63 47.601562 63 L 22.398438 63 C 13.878906 63 7 56.121094 7 47.601562 L 7 22.398438 C 7 13.878906 13.878906 7 22.398438 7 Z M 51.800781 15.398438 C 50.253906 15.398438 49 16.652344 49 18.199219 C 49 19.746094 50.253906 21 51.800781 21 C 53.347656 21 54.601562 19.746094 54.601562 18.199219 C 54.601562 16.652344 53.347656 15.398438 51.800781 15.398438 Z M 35 19.601562 C 26.511719 19.601562 19.601562 26.511719 19.601562 35 C 19.601562 43.488281 26.511719 50.398438 35 50.398438 C 43.488281 50.398438 50.398438 43.488281 50.398438 35 C 50.398438 26.511719 43.488281 19.601562 35 19.601562 Z M 35 22.398438 C 41.976562 22.398438 47.601562 28.023438 47.601562 35 C 47.601562 41.976562 41.976562 47.601562 35 47.601562 C 28.023438 47.601562 22.398438 41.976562 22.398438 35 C 22.398438 28.023438 28.023438 22.398438 35 22.398438 Z M 35 22.398438 "/>
</g>
</svg>
