<?xml version="1.0" encoding="UTF-8"?>
<svg xmlns="http://www.w3.org/2000/svg" xmlns:xlink="http://www.w3.org/1999/xlink" viewBox="0 0 70 70" width="70px" height="70px">
<g id="surface618788">
<path style=" stroke:none;fill-rule:nonzero;fill:rgb(30.980393%,64.705884%,92.156863%);fill-opacity:1;" d="M 47.90625 7.65625 C 39.535156 7.65625 32.726562 14.464844 32.726562 22.835938 C 32.726562 23.339844 32.851562 23.832031 32.898438 24.324219 C 22.546875 23.335938 13.394531 18.347656 7.175781 10.71875 C 6.886719 10.351562 6.4375 10.15625 5.964844 10.1875 C 5.5 10.222656 5.085938 10.488281 4.855469 10.894531 C 3.550781 13.140625 2.800781 15.726562 2.800781 18.507812 C 2.800781 21.871094 4.003906 24.949219 5.863281 27.476562 C 5.5 27.316406 5.109375 27.230469 4.769531 27.039062 C 4.335938 26.808594 3.816406 26.820312 3.394531 27.070312 C 2.976562 27.320312 2.71875 27.777344 2.710938 28.261719 L 2.710938 28.4375 C 2.710938 33.59375 5.382812 38.074219 9.320312 40.820312 C 9.273438 40.8125 9.230469 40.828125 9.1875 40.820312 C 8.707031 40.738281 8.21875 40.90625 7.898438 41.273438 C 7.574219 41.640625 7.46875 42.148438 7.613281 42.613281 C 9.175781 47.472656 13.167969 51.1875 18.113281 52.542969 C 14.175781 54.882812 9.609375 56.261719 4.679688 56.261719 C 3.613281 56.261719 2.59375 56.207031 1.574219 56.085938 C 0.917969 56 0.289062 56.382812 0.0703125 57.007812 C -0.152344 57.628906 0.09375 58.324219 0.65625 58.667969 C 6.972656 62.722656 14.46875 65.101562 22.53125 65.101562 C 35.597656 65.101562 45.84375 59.640625 52.71875 51.84375 C 59.59375 44.046875 63.175781 33.917969 63.175781 24.457031 C 63.175781 24.058594 63.140625 23.667969 63.132812 23.273438 C 65.695312 21.3125 67.988281 19.007812 69.78125 16.320312 C 70.136719 15.800781 70.097656 15.105469 69.6875 14.625 C 69.285156 14.140625 68.601562 13.996094 68.03125 14.261719 C 67.308594 14.585938 66.46875 14.617188 65.710938 14.875 C 66.707031 13.546875 67.5625 12.113281 68.074219 10.5 C 68.25 9.949219 68.058594 9.339844 67.605469 8.980469 C 67.152344 8.625 66.515625 8.582031 66.019531 8.882812 C 63.628906 10.296875 60.980469 11.292969 58.1875 11.898438 C 55.476562 9.363281 51.902344 7.65625 47.90625 7.65625 Z M 47.90625 10.457031 C 51.476562 10.457031 54.703125 11.980469 56.960938 14.394531 C 57.300781 14.742188 57.800781 14.890625 58.273438 14.789062 C 60.101562 14.425781 61.835938 13.894531 63.523438 13.210938 C 62.550781 14.523438 61.347656 15.644531 59.9375 16.492188 C 59.296875 16.804688 58.996094 17.542969 59.230469 18.214844 C 59.460938 18.882812 60.160156 19.273438 60.855469 19.117188 C 62.257812 18.949219 63.503906 18.378906 64.835938 18.023438 C 63.640625 19.320312 62.328125 20.492188 60.898438 21.523438 C 60.511719 21.808594 60.296875 22.269531 60.332031 22.75 C 60.351562 23.320312 60.375 23.882812 60.375 24.457031 C 60.375 33.207031 57.015625 42.707031 50.617188 49.960938 C 44.21875 57.21875 34.824219 62.300781 22.53125 62.300781 C 16.949219 62.300781 11.675781 61.0625 6.914062 58.886719 C 12.820312 58.433594 18.265625 56.34375 22.664062 52.894531 C 23.121094 52.527344 23.300781 51.914062 23.117188 51.355469 C 22.929688 50.800781 22.417969 50.417969 21.832031 50.398438 C 17.214844 50.316406 13.347656 47.632812 11.289062 43.835938 C 11.363281 43.835938 11.429688 43.835938 11.507812 43.835938 C 12.890625 43.835938 14.257812 43.664062 15.53125 43.3125 C 16.144531 43.132812 16.566406 42.5625 16.542969 41.921875 C 16.519531 41.285156 16.066406 40.738281 15.445312 40.601562 C 10.460938 39.59375 6.726562 35.535156 5.863281 30.492188 C 7.273438 30.980469 8.71875 31.363281 10.28125 31.414062 C 10.921875 31.449219 11.5 31.050781 11.699219 30.445312 C 11.894531 29.835938 11.652344 29.171875 11.113281 28.832031 C 7.789062 26.605469 5.601562 22.816406 5.601562 18.507812 C 5.601562 16.910156 6.015625 15.445312 6.5625 14.042969 C 13.5625 21.726562 23.363281 26.828125 34.429688 27.386719 C 34.867188 27.410156 35.296875 27.230469 35.578125 26.894531 C 35.863281 26.554688 35.972656 26.109375 35.875 25.679688 C 35.660156 24.773438 35.523438 23.8125 35.523438 22.835938 C 35.523438 15.980469 41.046875 10.457031 47.90625 10.457031 Z M 47.90625 10.457031 "/>
</g>
</svg>
